<?xml version="1.0" encoding="UTF-8"?>
<svg id="Ebene_1" data-name="Ebene 1" xmlns="http://www.w3.org/2000/svg" xmlns:xlink="http://www.w3.org/1999/xlink" viewBox="0 0 338.36 60.65">
  <defs>
    <style>
      .cls-1, .cls-2 {
        fill: none;
      }

      .cls-3 {
        fill: #1d1d1b;
      }

      .cls-4 {
        fill: #fff;
      }

      .cls-2 {
        stroke: #040706;
        stroke-miterlimit: 10;
        stroke-width: 4.48px;
      }

      .cls-5 {
        clip-path: url(#clippath);
      }
    </style>
    <clipPath id="clippath">
      <rect class="cls-1" width="60.58" height="60.65"/>
    </clipPath>
  </defs>
  <polygon class="cls-4" points="56.76 5.32 44.25 30.33 55.26 30.33 55.26 44.32 23.26 44.32 37.25 16.33 23.26 16.33 23.26 5.32 56.76 5.32"/>
  <polygon class="cls-4" points="37.25 16.33 23.26 44.32 37.25 44.32 37.25 55.33 3.75 55.33 16.26 30.33 5.25 30.33 5.25 16.33 37.25 16.33"/>
  <g class="cls-5">
    <polyline class="cls-2" points="3.75 30.33 16.26 30.33 2.33 58.32"/>
    <polyline class="cls-2" points="56.76 30.33 44.25 30.33 58.25 2.33"/>
    <line class="cls-2" x1="37.25" y1="56.83" x2="37.25" y2="44.32"/>
    <line class="cls-2" x1="23.26" y1="3.83" x2="23.26" y2="17.82"/>
    <polyline class="cls-2" points="56.76 44.32 23.26 44.32 37.25 16.33 3.75 16.33"/>
  </g>
  <g>
    <path class="cls-3" d="M66.56,46.01v-2.58c0-.23.07-.45.22-.64l7.87-10.42h-7.43c-.35,0-.52-.17-.52-.52v-3.19c0-.35.17-.52.52-.52h13.2c.35,0,.52.17.52.52v2.33c0,.23-.07.45-.22.64l-8.05,10.65h8.17c.18,0,.31.04.4.12.08.08.12.21.12.4v3.22c0,.17-.05.29-.14.38s-.22.14-.38.14h-13.76c-.35,0-.52-.17-.52-.52Z"/>
    <path class="cls-3" d="M87.46,45.93c-1.2-.66-2.11-1.58-2.74-2.75-.63-1.17-.94-2.51-.94-4.01v-10.52c0-.35.18-.52.54-.52h3.66c.35,0,.52.17.52.52v9.85c0,1.17.28,2.11.83,2.82.55.71,1.34,1.06,2.36,1.06.68,0,1.26-.16,1.75-.5.49-.33.86-.79,1.11-1.37.26-.58.38-1.26.38-2.02v-9.85c0-.35.17-.52.52-.52h3.66c.35,0,.52.17.52.52v10.52c0,1.5-.31,2.84-.94,4.01-.63,1.17-1.54,2.09-2.74,2.75-1.2.66-2.62.99-4.27.99s-3.05-.33-4.25-.99Z"/>
    <path class="cls-3" d="M106.8,45.64c-1.46-.86-2.61-2.02-3.45-3.48-.84-1.46-1.26-3.07-1.26-4.84s.42-3.35,1.26-4.81c.84-1.46,1.99-2.62,3.45-3.47,1.46-.85,3.08-1.28,4.86-1.28,1.07,0,2.1.17,3.09.5s1.89.8,2.7,1.41c.13.1.21.21.22.35.02.13-.02.26-.12.4l-2.13,2.77c-.1.12-.21.18-.33.2-.12.02-.26-.02-.41-.1-.45-.3-.93-.54-1.45-.72-.52-.18-1.04-.27-1.57-.27-.84,0-1.63.22-2.38.67-.74.45-1.33,1.06-1.77,1.83-.44.78-.66,1.62-.66,2.55,0,.97.22,1.86.66,2.65.44.79,1.03,1.41,1.77,1.86.74.45,1.53.67,2.38.67.3,0,.59-.02.88-.06.29-.04.57-.1.85-.19v-3.69c0-.16.05-.3.14-.4.09-.1.22-.15.38-.15h3.54c.18,0,.32.04.41.14.09.09.14.23.14.41v6.02c0,.12-.01.21-.04.27-.02.07-.09.13-.19.2-.89.61-1.86,1.07-2.9,1.39-1.04.31-2.11.47-3.22.47-1.78,0-3.4-.43-4.86-1.29Z"/>
    <path class="cls-3" d="M120.13,46.01v-2.58c0-.23.07-.45.22-.64l7.87-10.42h-7.43c-.35,0-.52-.17-.52-.52v-3.19c0-.35.17-.52.52-.52h13.2c.35,0,.52.17.52.52v2.33c0,.23-.07.45-.22.64l-8.05,10.65h8.17c.18,0,.31.04.4.12.08.08.12.21.12.4v3.22c0,.17-.05.29-.14.38s-.22.14-.38.14h-13.76c-.35,0-.52-.17-.52-.52Z"/>
    <path class="cls-3" d="M142.88,46.11l-6.61-17.38c-.07-.17-.06-.31.01-.42s.2-.17.38-.17h3.99c.3,0,.5.13.59.4l4.58,13.37-1.34.03,4.21-13.37c.1-.28.3-.42.59-.42h3.91c.18,0,.31.05.4.16.08.11.09.25.02.43l-2.65,8.02v-4.06l3.02,9.21-1.34-.02,4.48-13.32c.1-.28.3-.42.59-.42h3.96c.2,0,.34.05.42.16.08.11.08.25,0,.43l-6.68,17.38c-.1.28-.3.42-.59.42h-3.09c-.3,0-.5-.14-.59-.42l-2.67-7.28,1.51.02-2.77,7.25c-.1.28-.3.42-.59.42h-3.12c-.31,0-.52-.14-.62-.42Z"/>
    <path class="cls-3" d="M160.79,46.35c-.07-.12-.08-.26-.01-.45l6.68-17.38c.07-.13.15-.23.25-.3.1-.07.22-.1.37-.1h3.22c.17,0,.29.03.38.1.09.07.17.17.24.3l6.68,17.38c.07.18.06.33-.02.45-.08.12-.21.17-.4.17h-3.76c-.15,0-.27-.04-.37-.11-.1-.07-.17-.19-.22-.33l-3.91-11.54-.2-.84h-.05l-.2.84-3.91,11.54c-.05.15-.12.26-.22.33-.1.07-.22.11-.37.11h-3.79c-.18,0-.31-.06-.38-.17ZM165.63,43.47c-.08-.11-.09-.25-.02-.43l1.04-2.9v-.02c.07-.13.14-.23.24-.3.09-.07.21-.1.36-.1h4.9c.3,0,.5.14.59.42l1.04,2.9c.07.18.06.33-.03.43s-.21.16-.4.16h-7.33c-.18,0-.31-.05-.4-.16Z"/>
    <path class="cls-3" d="M180.94,46.39c-.09-.09-.14-.22-.14-.38v-17.35c0-.35.17-.52.52-.52h3.79c.28,0,.5.11.64.32l7.67,11.86-1.14.32v-11.98c0-.35.17-.52.52-.52h3.54c.35,0,.52.17.52.52v17.35c0,.17-.05.29-.14.38s-.22.14-.38.14h-3.34c-.26,0-.48-.12-.64-.35l-8.15-12.4,1.16-.35v12.58c0,.35-.17.52-.52.52h-3.54c-.17,0-.29-.04-.38-.14Z"/>
    <path class="cls-3" d="M204.39,45.64c-1.46-.86-2.61-2.02-3.45-3.48-.84-1.46-1.26-3.07-1.26-4.84s.42-3.35,1.26-4.81c.84-1.46,1.99-2.62,3.45-3.47,1.46-.85,3.08-1.28,4.87-1.28,1.07,0,2.1.17,3.09.5s1.89.8,2.7,1.41c.13.1.21.21.22.35.02.13-.03.26-.12.4l-2.13,2.77c-.1.12-.21.18-.33.2-.12.02-.26-.02-.41-.1-.45-.3-.93-.54-1.45-.72-.52-.18-1.04-.27-1.57-.27-.84,0-1.63.22-2.38.67-.74.45-1.33,1.06-1.77,1.83-.44.78-.66,1.62-.66,2.55,0,.97.22,1.86.66,2.65.44.79,1.03,1.41,1.77,1.86.74.45,1.54.67,2.38.67.3,0,.59-.02.88-.06.29-.04.57-.1.85-.19v-3.69c0-.16.04-.3.14-.4.09-.1.22-.15.38-.15h3.54c.18,0,.32.04.41.14s.14.23.14.41v6.02c0,.12-.01.21-.04.27-.02.07-.09.13-.19.2-.89.61-1.86,1.07-2.9,1.39s-2.11.47-3.22.47c-1.78,0-3.4-.43-4.87-1.29Z"/>
    <path class="cls-3" d="M224.79,46.39c-.09-.09-.14-.22-.14-.38v-17.35c0-.35.17-.52.52-.52h7.11c1.32,0,2.48.26,3.48.79,1,.53,1.77,1.26,2.31,2.2.54.94.82,2,.82,3.17,0,1.29-.26,2.41-.78,3.38-.52.97-1.27,1.72-2.26,2.25s-2.16.8-3.52.8h-2.95v5.27c0,.17-.05.29-.14.38-.09.09-.22.14-.38.14h-3.69c-.17,0-.29-.04-.38-.14ZM233.54,35.87c.43-.4.64-.91.64-1.52,0-.58-.21-1.05-.63-1.42-.42-.37-.95-.56-1.6-.56h-2.58v4.11h2.55c.64,0,1.18-.2,1.61-.61Z"/>
    <path class="cls-3" d="M241.45,46.39c-.09-.09-.14-.22-.14-.38v-17.35c0-.35.17-.52.52-.52h7.43c1.27,0,2.4.26,3.38.79.98.53,1.75,1.26,2.29,2.2.54.94.82,2.02.82,3.24s-.24,2.18-.72,3.02c-.48.84-1.16,1.52-2.03,2.03l3.24,6.49c.08.18.09.33.02.45-.07.12-.2.17-.4.17h-4.18c-.28,0-.49-.13-.62-.4l-2.57-5.47h-2.45v5.35c0,.17-.05.29-.14.38-.09.09-.22.14-.38.14h-3.69c-.17,0-.29-.04-.38-.14ZM250.36,35.91c.4-.41.61-.92.61-1.51,0-.64-.2-1.14-.61-1.5-.41-.35-.9-.53-1.47-.53h-2.85v4.16h2.8c.61,0,1.12-.21,1.52-.62Z"/>
    <path class="cls-3" d="M262.32,45.64c-1.46-.86-2.61-2.02-3.45-3.48-.84-1.46-1.26-3.07-1.26-4.84s.42-3.38,1.26-4.83,1.99-2.6,3.45-3.45c1.46-.85,3.07-1.28,4.84-1.28s3.4.42,4.87,1.28c1.46.85,2.61,2,3.45,3.45s1.26,3.06,1.26,4.83-.42,3.38-1.26,4.84c-.84,1.46-1.99,2.62-3.45,3.48-1.46.86-3.07,1.29-4.84,1.29s-3.4-.43-4.87-1.29ZM269.55,41.74c.73-.44,1.32-1.04,1.76-1.82.44-.78.66-1.63.66-2.57s-.22-1.79-.66-2.56-1.02-1.37-1.76-1.82c-.74-.45-1.53-.67-2.39-.67s-1.63.22-2.36.67c-.73.45-1.32,1.05-1.76,1.82s-.66,1.62-.66,2.56.22,1.79.67,2.56c.45.77,1.04,1.37,1.77,1.82s1.52.67,2.37.67,1.63-.22,2.36-.66Z"/>
    <path class="cls-3" d="M279.55,46.45c-.77-.31-1.5-.78-2.19-1.39-.12-.12-.18-.24-.2-.36-.02-.12.02-.25.12-.38l1.96-2.55c.21-.26.46-.3.74-.1l.05.03c.33.23.64.4.93.52s.59.17.9.17c.41,0,.74-.12.98-.37.24-.25.36-.61.36-1.09v-12.28c0-.35.17-.52.52-.52h3.66c.35,0,.52.17.52.52v12.28c0,1.22-.24,2.28-.72,3.18-.48.9-1.16,1.59-2.04,2.08-.88.49-1.9.73-3.06.73-.92,0-1.77-.16-2.54-.47Z"/>
    <path class="cls-3" d="M291.33,46.39c-.09-.09-.14-.22-.14-.38v-17.35c0-.35.17-.52.52-.52h12.33c.35,0,.52.17.52.52v3.19c0,.35-.17.52-.52.52h-8.12v2.9h6.24c.35,0,.52.17.52.52v2.85c0,.35-.17.52-.52.52h-6.24v3.12h8.32c.18,0,.31.04.4.12.08.08.12.21.12.4v3.22c0,.17-.04.29-.12.38-.08.09-.21.14-.4.14h-12.53c-.17,0-.29-.04-.38-.14Z"/>
    <path class="cls-3" d="M311.24,45.64c-1.46-.86-2.62-2.02-3.47-3.49-.85-1.47-1.27-3.08-1.27-4.83s.42-3.35,1.27-4.81c.85-1.46,2.01-2.62,3.47-3.47,1.46-.85,3.08-1.28,4.87-1.28,1.09,0,2.13.17,3.13.51,1,.34,1.91.82,2.74,1.45.12.08.18.19.2.32.02.13-.02.26-.1.37l-2.03,2.77c-.08.12-.19.19-.31.21-.12.03-.25,0-.38-.09-.48-.3-1-.54-1.57-.73s-1.13-.29-1.67-.29c-.84,0-1.63.22-2.38.67-.74.45-1.34,1.05-1.79,1.82s-.68,1.61-.68,2.54.23,1.78.68,2.56c.45.78,1.05,1.4,1.79,1.84.74.45,1.54.67,2.38.67.61,0,1.17-.08,1.68-.23.51-.16,1.04-.42,1.58-.8.13-.08.26-.11.4-.09.13.02.24.09.32.21l1.98,2.8c.08.12.12.24.11.36,0,.12-.06.23-.16.31-.83.63-1.75,1.11-2.76,1.46s-2.07.52-3.16.52c-1.78,0-3.4-.43-4.87-1.29Z"/>
    <path class="cls-3" d="M328.83,46.39c-.1-.09-.15-.22-.15-.38v-13.37h-4.41c-.35,0-.52-.17-.52-.52v-3.47c0-.35.17-.52.52-.52h13.57c.35,0,.52.17.52.52v3.47c0,.17-.04.29-.14.38s-.22.14-.38.14h-4.43v13.37c0,.17-.05.29-.14.38-.09.09-.22.14-.38.14h-3.66c-.17,0-.3-.04-.4-.14Z"/>
  </g>
</svg>